<?xml version="1.0" encoding="utf-8"?>
<?xml-stylesheet type="text/xsl" href="rss1.xsl"?>
<rss version="2.0" xmlns:atom="http://www.w3.org/2005/Atom" xmlns:content="http://purl.org/rss/1.0/modules/content/" xmlns:dc="http://purl.org/dc/elements/1.1/" xmlns:media="http://search.yahoo.com/mrss/">
<channel>
 <title>Getty</title>
 <link>http://www.gettyimg.com/</link>
 <atom:link href="http://www.gettyimg.com/" rel="self" type="application/rss+xml" />

 
                <item>
                <title><![CDATA[【HD Live Performances】WEB-DL - John Fogerty - Stagecoach 2016 1080p WEB-DL AAC2.0 H.264]]></title>
                <link><![CDATA[https://sharemania.us/threads/john-fogerty-stagecoach-2016-1080p-web-dl-aac2-0-h-264.243381/]]></link>
                <description><![CDATA[<article>
<blockquote class="messageText SelectQuoteContainer ugc baseHtml">
<img src="https://i.ibb.co/Z1BNBk6/Stagecoach-2016-John-Fogerty-1080p-WEB-DL-AAC2-0-H-264-No-GRP-ts.png" class="bbCodeImage LbImage" alt="[​IMG]" data-url="https://i.ibb.co/Z1BNBk6/Stagecoach-2016-John-Fogerty-1080p-WEB-DL-AAC2-0-H-264-No-GRP-ts.png" style=""><br>
<div class="ToggleTriggerAnchor bbCodeSpoilerContainer">
<button type="button" class="button bbCodeSpoilerButton ToggleTrigger Tooltip JsOnly" data-target="> .SpoilerTarget"><span>Spoiler: <span class="SpoilerTitle">MediaInfo</span></span></button>
<div class="SpoilerTarget bbCodeSpoilerText">
<div class="bbCodeBlock bbCodeCode">
<div class="type">Code:</div>
<pre>General
File size                                : 5.34 GiB
Duration                                 : 1 h 26 min
Overall bit rate mode                    : Variable
Overall bit rate                         : 8 827 kb/s
Frame rate                               : 60.000 FPS

Video
ID                                       : 256 (0x100)
Menu ID                                  : 1 (0x1)
Format                                   : AVC
Format/Info                              : Advanced Video Codec
Format profile                           : High@L4.2
Format settings                          : CABAC / 2 Ref Frames
Format settings, CABAC                   : Yes
Format settings, Reference frames        : 2 frames
Format settings, GOP                     : M=3, N=120
Format settings, Slice count             : 8 slices per frame
Codec ID                                 : 27
Duration                                 : 1 h 26 min
Bit rate mode                            : Constant
Nominal bit rate                         : 8 000 kb/s
Width                                    : 1 920 pixels
Height                                   : 1 080 pixels
Display aspect ratio                     : 16:9
Frame rate                               : 60.000 FPS
Color space                              : YUV
Chroma subsampling                       : 4:2:0
Bit depth                                : 8 bits
Scan type                                : Progressive
Bits/(Pixel*Frame)                       : 0.064

Audio
ID                                       : 257 (0x101)
Menu ID                                  : 1 (0x1)
Format                                   : AAC LC
Format/Info                              : Advanced Audio Codec Low Complexity
Format version                           : Version 4
Muxing mode                              : ADTS
Codec ID                                 : 15-2
Duration                                 : 1 h 26 min
Bit rate mode                            : Variable
Channel(s)                               : 2 channels
Channel layout                           : L R
Sampling rate                            : 44.1 kHz
Frame rate                               : 43.066 FPS (1024 SPF)
Compression mode                         : Lossy
Delay relative to video                  : -1 s 148 ms

Menu
ID                                       : 4096 (0x1000)
Menu ID                                  : 1 (0x1)
Format                                   : AVC / AAC
Duration                                 : 1 h 26 min
List                                     : 256 (0x100) (AVC) / 257 (0x101) (AAC)
Service name                             : Service01
Service provider                         : FFmpeg
Service type                             : digital television
</pre>
</div></div>
</div>
<div class="bbCodeBlock bbCodeVfcHH HiddenContent">
<div class="attribution type">Hidden Content:</div>
<blockquote>You must reply before you can see the hidden data contained here.</blockquote>
</div>
<div class="messageTextEndMarker">&nbsp;</div>
</blockquote>
</article>]]></description>
                <author><![CDATA[itunesboy]]></author>
                </item>

                
                <item>
                <title><![CDATA[【HD Live Performances】HDTV - George Thorogood and The Destroyers - Stagecoach 2015 1080i HDTV DD5.1 MPEG2]]></title>
                <link><![CDATA[https://sharemania.us/threads/george-thorogood-and-the-destroyers-stagecoach-2015-1080i-hdtv-dd5-1-mpeg2.243384/]]></link>
                <description><![CDATA[<article>
<blockquote class="messageText SelectQuoteContainer ugc baseHtml">
Thanks.
<div class="messageTextEndMarker">&nbsp;</div>
</blockquote>
</article>]]></description>
                <author><![CDATA[itunesboy]]></author>
                </item>

                
                <item>
                <title><![CDATA[【Albums (lossless)】FLAC - Motionless In White - Scoring The End Of The World (Deluxe Edition) [Qobuz Hi-Res 24bit/48kHz]]]></title>
                <link><![CDATA[https://sharemania.us/threads/motionless-in-white-scoring-the-end-of-the-world-deluxe-edition-qobuz-hi-res-24bit-48khz.243387/]]></link>
                <description><![CDATA[<article>
<blockquote class="messageText SelectQuoteContainer ugc baseHtml">
<img src="https://i.ibb.co/0yR7G7j/Stagecoach-2015-George-Thorogood-and-The-Destroyers-1080i-HDTV-DD5-1-MPEG2-No-GRP-ts.png" class="bbCodeImage LbImage" alt="[​IMG]" data-url="https://i.ibb.co/0yR7G7j/Stagecoach-2015-George-Thorogood-and-The-Destroyers-1080i-HDTV-DD5-1-MPEG2-No-GRP-ts.png" style=""><br>
<div class="ToggleTriggerAnchor bbCodeSpoilerContainer">
<button type="button" class="button bbCodeSpoilerButton ToggleTrigger Tooltip JsOnly" data-target="> .SpoilerTarget"><span>Spoiler: <span class="SpoilerTitle">MediaInfo</span></span></button>
<div class="SpoilerTarget bbCodeSpoilerText">
<div class="bbCodeBlock bbCodeCode">
<div class="type">Code:</div>
<pre>General
Format                                   : MPEG-TS
File size                                : 7.66 GiB
Duration                                 : 1 h 11 min
Overall bit rate mode                    : Variable
Overall bit rate                         : 15.3 Mb/s
Frame rate                               : 29.970 FPS

Video
ID                                       : 6081 (0x17C1)
Menu ID                                  : 1 (0x1)
Format                                   : MPEG Video
Format version                           : Version 2
Format profile                           : Main@High
Format settings                          : CustomMatrix / BVOP
Format settings, BVOP                    : Yes
Format settings, Matrix                  : Custom
Format settings, GOP                     : Variable
Format settings, picture structure       : Frame
Codec ID                                 : 2
Duration                                 : 1 h 11 min
Bit rate mode                            : Variable
Bit rate                                 : 14.1 Mb/s
Maximum bit rate                         : 18.0 Mb/s
Width                                    : 1 920 pixels
Height                                   : 1 080 pixels
Display aspect ratio                     : 16:9
Frame rate                               : 29.970 (30000/1001) FPS
Color space                              : YUV
Chroma subsampling                       : 4:2:0
Bit depth                                : 8 bits
Scan type                                : Interlaced
Scan order                               : Top Field First
Compression mode                         : Lossy
Bits/(Pixel*Frame)                       : 0.227
Time code of first frame                 : 00:00:00;00
Time code source                         : Group of pictures header
Stream size                              : 7.08 GiB (93%)

Audio
ID                                       : 6082 (0x17C2)
Menu ID                                  : 1 (0x1)
Format                                   : AC-3
Format/Info                              : Audio Coding 3
Commercial name                          : Dolby Digital
Codec ID                                 : 129
Duration                                 : 1 h 11 min
Bit rate mode                            : Constant
Bit rate                                 : 384 kb/s
Channel(s)                               : 6 channels
Channel layout                           : L R C LFE Ls Rs
Sampling rate                            : 48.0 kHz
Frame rate                               : 31.250 FPS (1536 SPF)
Compression mode                         : Lossy
Delay relative to video                  : 9 ms
Stream size                              : 197 MiB (3%)
Language                                 : English
Service kind                             : Complete Main
Dialog Normalization                     : -25 dB
compr                                    : 5.46 dB
dynrng                                   : 5.31 dB
cmixlev                                  : -3.0 dB
surmixlev                                : -3 dB
dialnorm_Average                         : -25 dB
dialnorm_Minimum                         : -25 dB
dialnorm_Maximum                         : -25 dB

Text #1
ID                                       : 6081 (0x17C1)-CC1
Menu ID                                  : 1 (0x1)
Format                                   : EIA-608
Muxing mode                              : A/53 / DTVCC Transport
Muxing mode, more info                   : Muxed in Video #1
Duration                                 : 1 h 11 min
End time                                 : 1 h 11 min
Bit rate mode                            : Constant
Stream size                              : 0.00 Byte (0%)
Type of the first event                  : RollUp

Text #2
ID                                       : 6081 (0x17C1)-1
Menu ID                                  : 1 (0x1)
Format                                   : EIA-708
Muxing mode                              : A/53 / DTVCC Transport
Muxing mode, more info                   : Muxed in Video #1
Duration                                 : 1 h 11 min
Bit rate mode                            : Constant
Stream size                              : 0.00 Byte (0%)
</pre>
</div></div>
</div>
<div class="bbCodeBlock bbCodeVfcHH HiddenContent">
<div class="attribution type">Hidden Content:</div>
<blockquote>You must reply before you can see the hidden data contained here.</blockquote>
</div>
<div class="messageTextEndMarker">&nbsp;</div>
</blockquote>
</article>]]></description>
                <author><![CDATA[olobersykes99]]></author>
                </item>

                
                <item>
                <title><![CDATA[【HD Live Performances】HDTV - Robbie Williams - BRITs Icon (ITV1 HD 2016-12-05) HDTV 1080i-TPF HDMania]]></title>
                <link><![CDATA[https://sharemania.us/threads/robbie-williams-brits-icon-itv1-hd-2016-12-05-hdtv-1080i-tpf-hdmania.243386/]]></link>
                <description><![CDATA[<article>
<blockquote class="messageText SelectQuoteContainer ugc baseHtml">
<img src="https://i.imgur.com/HznZjis.jpeg" class="bbCodeImage LbImage" alt="[​IMG]" data-url="https://i.imgur.com/HznZjis.jpeg" style=""> <br>
<span style="font-size: 18px"><b>ABOUT THE ALBUM</b></span><br>
<ul>
<li>1 disc(s) - 17 track(s)</li>
<li>Total length: 01:04:42</li>
<li>Main artists: <a href="https://www.qobuz.com/us-en/interpreter/motionless-in-white/940125" target="_blank" class="externalLink" rel="nofollow">Motionless In White</a></li>
<li>Label: <a href="https://www.qobuz.com/us-en/label/roadrunner-records-1/download-streaming-albums/7412" target="_blank" class="externalLink" rel="nofollow">Roadrunner Records</a></li>
<li>Genre: <a href="https://www.qobuz.com/us-en/genre/pop-rock/download-streaming-albums" target="_blank" class="externalLink" rel="nofollow">Pop/Rock</a> <a href="https://www.qobuz.com/us-en/genre/rock/download-streaming-albums" target="_blank" class="externalLink" rel="nofollow">Rock</a></li>
</ul><b><span style="color: #ff0000">DOWNLOAD:</span></b><br>
<div class="bbCodeBlock bbCodeVfcHH HiddenContent">
<div class="attribution type">Hidden Content:</div>
<blockquote>You must either reply or click 'Like' to see the hidden information contained here.</blockquote>
</div><img src="https://imgbox.com/3LfwqJnu" class="bbCodeImage LbImage" alt="[​IMG]" data-url="https://imgbox.com/3LfwqJnu" style="">
<div class="messageTextEndMarker">&nbsp;</div>
</blockquote>
</article>]]></description>
                <author><![CDATA[ThePixelFarm]]></author>
                </item>

                
                <item>
                <title><![CDATA[【MASTER &amp; MASTER RIP】MASTER - Chita - Maldito Mio (Master 4K)]]></title>
                <link><![CDATA[https://sharemania.us/threads/chita-maldito-mio-master-4k.243380/]]></link>
                <description><![CDATA[<article>
<blockquote class="messageText SelectQuoteContainer ugc baseHtml">
<div style="text-align: center"><img src="https://i.postimg.cc/6qb0kr10/BRITs-Icon-Robbie-Williams-ITV-2016-Banner.png" class="bbCodeImage LbImage" alt="[​IMG]" data-url="https://i.postimg.cc/6qb0kr10/BRITs-Icon-Robbie-Williams-ITV-2016-Banner.png" style=""><br>
<b><span style="font-size: 18px">Robbie Williams - BRITs Icon (ITV1 HD 2016-12-05) HDTV 1080i-TPF HDMania</span></b><br>
<span style="font-size: 12px"><i>Robbie Williams celebrates being awarded the BRIT Icon award with a special one-off show from the Troxy in London.</i></span><br>
<img src="https://i.postimg.cc/SQgDY4NM/BRITs-Icon-Robbie-Williams-ITV-2016-Half-Banner.png" class="bbCodeImage LbImage" alt="[​IMG]" data-url="https://i.postimg.cc/SQgDY4NM/BRITs-Icon-Robbie-Williams-ITV-2016-Half-Banner.png" style=""><br>
<img src="https://i.postimg.cc/vHRLVmwD/Robbie-Williams-BRITs-Icon-ITV1-HD-2016-12-05-HDTV-1080i-TPF-HDMania-0.png" class="bbCodeImage LbImage" alt="[​IMG]" data-url="https://i.postimg.cc/vHRLVmwD/Robbie-Williams-BRITs-Icon-ITV1-HD-2016-12-05-HDTV-1080i-TPF-HDMania-0.png" style=""><br>
<img src="https://i.postimg.cc/1tPJw5qp/Robbie-Williams-BRITs-Icon-ITV1-HD-2016-12-05-HDTV-1080i-TPF-HDMania-00.png" class="bbCodeImage LbImage" alt="[​IMG]" data-url="https://i.postimg.cc/1tPJw5qp/Robbie-Williams-BRITs-Icon-ITV1-HD-2016-12-05-HDTV-1080i-TPF-HDMania-00.png" style=""><br>
<img src="https://i.postimg.cc/XJ8x8Sft/Robbie-Williams-BRITs-Icon-ITV1-HD-2016-12-05-HDTV-1080i-TPF-HDMania.jpg" class="bbCodeImage LbImage" alt="[​IMG]" data-url="https://i.postimg.cc/XJ8x8Sft/Robbie-Williams-BRITs-Icon-ITV1-HD-2016-12-05-HDTV-1080i-TPF-HDMania.jpg" style="">
<div class="ToggleTriggerAnchor bbCodeSpoilerContainer">
<button type="button" class="button bbCodeSpoilerButton ToggleTrigger Tooltip JsOnly" data-target="> .SpoilerTarget"><span>Spoiler: <span class="SpoilerTitle">MediaInfo.</span></span></button>
<div class="SpoilerTarget bbCodeSpoilerText">Size : 3.692 GB<br>
Duration : 01:09:06.22<br>
Mux type : TS Stream<br>
TS mux rate : 30.870 Mbps<br>
<b>Video:</b><br>
Encoding : H.264<br>
VideoStreamID : x1839<br>
Frame rate : 25.00 fps<br>
Frame rate flag : Constant<br>
Encoding size : 1920 x 1080<br>
Aspect ratio : 16:9<br>
Header bit rate : 25.000 Mbps<br>
VBV buffer : 572 KBytes<br>
Profile : High/4.0<br>
Progressive : Interlaced (MBAFF)<br>
Chroma : 4:2:0<br>
Entropy mode : CABAC<br>
Bit rate : 6.839 Mbps<br>
<b>Audio Stream: 1 (Primary)</b><br>
Codec : AAC<br>
Format : LATM/LOAS<br>
Channels : 2.0<br>
Language : eng<br>
PID : x183A<br>
PES Stream Id : xC1<br>
Sampling rate : 48000<br>
Sample size : 16 bits</div>
</div>
<div class="bbCodeBlock bbCodeVfcHH HiddenContent">
<div class="attribution type">Hidden Content:</div>
<blockquote>You must either reply or click 'Like' to see the hidden information contained here.</blockquote>
</div><b><span style="color: rgb(255, 0, 0)">Don't forget to <i>Like</i>, if you download...</span></b><br>
<br>
<span style="font-size: 15px">If you like, <i>like</i>... <img src="styles/default/xenforo/smilies/exciting-48.png" class="mceSmilie" alt=":D" title="Big Grin    :D">...I always <i>like</i>, back (if you leave a <i>reply</i>)... <img src="styles/default/xenforo/smilies/haha-48.png" class="mceSmilie" alt=":lol:" title="LOL    :lol:"><br>
<br>
Credit to the original capper: <i><b>Me</b></i><br>
<br>
<b>This fills a request, by <i><a href="https://sharemania.us/members/160134/" class="username" data-user="160134, @Kostas">@Kostas</a></i></b></span>​</div>
<div class="messageTextEndMarker">&nbsp;</div>
</blockquote>
</article>]]></description>
                <author><![CDATA[fstambuk]]></author>
                </item>

                
                <item>
                <title><![CDATA[【Singles (lossless)】WAV - Madonna - Ray Of Light (16-Bit CD Rip) [9 17206-2]]]></title>
                <link><![CDATA[https://sharemania.us/threads/madonna-ray-of-light-16-bit-cd-rip-9-17206-2.243385/]]></link>
                <description><![CDATA[<article>
<blockquote class="messageText SelectQuoteContainer ugc baseHtml">
<div style="text-align: center"><img src="https://i.ibb.co/c8GDq0C/Chita-Maldito-Mio-VTM.gif" class="bbCodeImage LbImage" alt="[​IMG]" data-url="https://i.ibb.co/c8GDq0C/Chita-Maldito-Mio-VTM.gif" style=""><br>
​</div>
<div class="ToggleTriggerAnchor bbCodeSpoilerContainer">
<button type="button" class="button bbCodeSpoilerButton ToggleTrigger Tooltip JsOnly" data-target="> .SpoilerTarget"><span>Spoiler: <span class="SpoilerTitle">MASTER</span></span></button>
<div class="SpoilerTarget bbCodeSpoilerText">
<div class="bbCodeBlock bbCodeCode">
<div class="type">Code:</div>
<pre>General
Complete name                            : Chita - Maldito Mio.mp4
Format                                   : MPEG-4
Format profile                           : Base Media / Version 2
Codec ID                                 : mp42 (mp42/mp41)
File size                                : 2.16 GiB
Duration                                 : 2 min 31 s
Overall bit rate mode                    : Variable
Overall bit rate                         : 122 Mb/s
Frame rate                               : 25.000 FPS
Encoded date                             : 2024-04-29 17:07:08 UTC
Tagged date                              : 2024-04-29 17:08:00 UTC
TIM                                      : 00:00:00:00
TSC                                      : 25
TSZ                                      : 1

Video
ID                                       : 1
Format                                   : AVC
Format/Info                              : Advanced Video Codec
Format profile                           : Main@L5.1
Format settings                          : CABAC / 3 Ref Frames
Format settings, CABAC                   : Yes
Format settings, Reference frames        : 3 frames
Format settings, GOP                     : M=1, N=30
Codec ID                                 : avc1
Codec ID/Info                            : Advanced Video Coding
Duration                                 : 2 min 31 s
Bit rate                                 : 122 Mb/s
Width                                    : 3 102 pixels
Height                                   : 2 160 pixels
Display aspect ratio                     : 1.436
Frame rate mode                          : Constant
Frame rate                               : 25.000 FPS
Color space                              : YUV
Chroma subsampling                       : 4:2:0
Bit depth                                : 8 bits
Scan type                                : Progressive
Bits/(Pixel*Frame)                       : 0.725
Stream size                              : 2.15 GiB (100%)
Language                                 : English
Encoded date                             : 2024-04-29 17:07:08 UTC
Tagged date                              : 2024-04-29 17:07:08 UTC
Codec configuration box                  : avcC

Audio
ID                                       : 2
Format                                   : AAC LC
Format/Info                              : Advanced Audio Codec Low Complexity
Codec ID                                 : 2 / 40 / mp4a-40-2
Duration                                 : 2 min 31 s
Source duration                          : 2 min 32 s
Bit rate mode                            : Variable
Bit rate                                 : 317 kb/s
Maximum bit rate                         : 492 kb/s
Channel(s)                               : 2 channels
Channel layout                           : L R
Sampling rate                            : 48.0 kHz
Frame rate                               : 46.875 FPS (1024 SPF)
Compression mode                         : Lossy
Stream size                              : 5.75 MiB (0%)
Source stream size                       : 5.75 MiB (0%)
Language                                 : English
Encoded date                             : 2024-04-29 17:07:08 UTC
Tagged date                              : 2024-04-29 17:07:08 UTC

</pre>
</div><div style="text-align: center">​</div></div>
</div><div style="text-align: center">
<div class="bbCodeBlock bbCodeVfcHH HiddenContent">
<div class="attribution type">Hidden Content:</div>
<blockquote>You must reply before you can see the hidden data contained here.</blockquote>
</div><img src="https://i.ibb.co/PgvSPVC/gifit-1714436552506.gif" class="bbCodeImage LbImage" alt="[​IMG]" data-url="https://i.ibb.co/PgvSPVC/gifit-1714436552506.gif" style="">​</div>
<div class="messageTextEndMarker">&nbsp;</div>
</blockquote>
</article>]]></description>
                <author><![CDATA[nukleopatra]]></author>
                </item>

                
                <item>
                <title><![CDATA[【Documentaries】HDTV - Please delete]]></title>
                <link><![CDATA[https://sharemania.us/threads/please-delete.243383/]]></link>
                <description><![CDATA[<article>
<blockquote class="messageText SelectQuoteContainer ugc baseHtml">
<img src="https://pbs.twimg.com/media/GMX3XwlXMAAVfpG?format=jpg&amp;name=large" class="bbCodeImage LbImage" alt="[​IMG]" data-url="https://pbs.twimg.com/media/GMX3XwlXMAAVfpG?format=jpg&amp;name=large" style=""> <br>
<br>
<br>
1. Ray Of Light<br>
2. Has To Be (non-album track)<br>
<br>
Discogs: <a href="https://www.discogs.com/release/683651-Madonna-Ray-Of-Light" target="_blank" class="externalLink" rel="nofollow">https://www.discogs.com/release/683651-Madonna-Ray-Of-Light</a><br>
<br>
Google Drive:
<div class="bbCodeBlock bbCodeVfcHH HiddenContent">
<div class="attribution type">Hidden Content:</div>
<blockquote>You must reply before you can see the hidden data contained here.</blockquote>
</div>
<div class="messageTextEndMarker">&nbsp;</div>
</blockquote>
</article>]]></description>
                <author><![CDATA[ThePixelFarm]]></author>
                </item>

                
                <item>
                <title><![CDATA[【Albums (lossless)】FLAC - Motionless In White - Disguise (Explicit) [Qobuz Hi-Res 24bit/44.1kHz]]]></title>
                <link><![CDATA[https://sharemania.us/threads/motionless-in-white-disguise-explicit-qobuz-hi-res-24bit-44-1khz.243382/]]></link>
                <description><![CDATA[<article>
<blockquote class="messageText SelectQuoteContainer ugc baseHtml">
<div style="text-align: center"><b>Please delete</b>​</div>
<div class="messageTextEndMarker">&nbsp;</div>
</blockquote>
</article>]]></description>
                <author><![CDATA[olobersykes99]]></author>
                </item>

                </channel></rss>